<svg width="67" height="67" viewBox="0 0 67 67" fill="none" xmlns="http://www.w3.org/2000/svg">
<mask id="path-1-inside-1_49_833" fill="white">
<path d="M19.4292 23.4255H48.4758V44.5503H19.4292V23.4255Z"/>
</mask>
<path d="M48.4758 43.23H19.4292V45.8706H48.4758V43.23Z" fill="white" mask="url(#path-1-inside-1_49_833)"/>
<path d="M21.0301 37.1775V27.3473H22.0693V36.2787H27.5742V37.1775H21.0301ZM29.089 37.1775V29.8048H30.0861V37.1775H29.089ZM29.5946 28.1758C29.3886 28.1758 29.2154 28.1056 29.075 27.9652C28.9346 27.8247 28.8643 27.6562 28.8643 27.4596C28.8643 27.263 28.9346 27.0992 29.075 26.9681C29.2154 26.8277 29.3886 26.7575 29.5946 26.7575C29.8006 26.7575 29.9738 26.823 30.1142 26.9541C30.2546 27.0851 30.3248 27.249 30.3248 27.4456C30.3248 27.6515 30.2546 27.8247 30.1142 27.9652C29.9831 28.1056 29.8099 28.1758 29.5946 28.1758ZM36.624 29.7346C37.2231 29.7346 37.7474 29.8516 38.1968 30.0857C38.6555 30.3104 39.0113 30.6568 39.2641 31.1249C39.5262 31.593 39.6573 32.1828 39.6573 32.8943V37.1775H38.6602V32.9926C38.6602 32.2156 38.4636 31.6304 38.0704 31.2372C37.6866 30.8347 37.1436 30.6334 36.4414 30.6334C35.9171 30.6334 35.4584 30.741 35.0652 30.9564C34.6813 31.1623 34.3817 31.4666 34.1664 31.8692C33.9604 32.2624 33.8575 32.7398 33.8575 33.3016V37.1775H32.8604V29.8048H33.8153V31.827L33.6609 31.4479C33.8949 30.9142 34.2694 30.4976 34.7843 30.198C35.2992 29.8891 35.9124 29.7346 36.624 29.7346ZM43.1369 35.2676L43.165 33.9897L47.7571 29.8048H48.9789L45.7349 32.9084L45.1732 33.3858L43.1369 35.2676ZM42.3505 37.1775V26.7575H43.3476V37.1775H42.3505ZM48.0661 37.1775L44.9906 33.3437L45.6366 32.5713L49.2878 37.1775H48.0661Z" fill="white"/>
</svg>
