<svg width="67" height="67" viewBox="0 0 67 67" fill="none" xmlns="http://www.w3.org/2000/svg">
<path d="M22.8687 39.488V30.5566H19.4141V29.6578H27.3625V30.5566H23.9079V39.488H22.8687ZM31.1757 39.5583C30.408 39.5583 29.7339 39.3991 29.1535 39.0808C28.573 38.7531 28.1189 38.3084 27.7913 37.7467C27.4636 37.1756 27.2998 36.5249 27.2998 35.7947C27.2998 35.0644 27.4542 34.4185 27.7632 33.8567C28.0815 33.295 28.5122 32.855 29.0552 32.5367C29.6075 32.209 30.2254 32.0452 30.9089 32.0452C31.6017 32.0452 32.2149 32.2043 32.7485 32.5226C33.2915 32.8316 33.7175 33.2716 34.0264 33.8427C34.3354 34.4044 34.4899 35.0551 34.4899 35.7947C34.4899 35.8415 34.4852 35.893 34.4758 35.9492C34.4758 35.996 34.4758 36.0475 34.4758 36.1036H28.0581V35.3593H33.9422L33.549 35.6543C33.549 35.1206 33.4319 34.6478 33.1979 34.2359C32.9732 33.8146 32.6643 33.4869 32.271 33.2529C31.8778 33.0188 31.4238 32.9018 30.9089 32.9018C30.4033 32.9018 29.9492 33.0188 29.5467 33.2529C29.1441 33.4869 28.8305 33.8146 28.6058 34.2359C28.3811 34.6572 28.2687 35.1393 28.2687 35.6823V35.8368C28.2687 36.3985 28.3904 36.8947 28.6339 37.3254C28.8866 37.7467 29.233 38.079 29.6731 38.3225C30.1224 38.5565 30.6327 38.6735 31.2038 38.6735C31.6531 38.6735 32.0698 38.594 32.4536 38.4348C32.8468 38.2756 33.1839 38.0322 33.4647 37.7046L34.0264 38.3505C33.6988 38.7437 33.2868 39.0433 32.7906 39.2493C32.3038 39.4553 31.7655 39.5583 31.1757 39.5583ZM35.1902 39.488L38.3077 35.4436L38.2937 35.9351L35.3306 32.1154H36.454L38.8835 35.2751L38.4622 35.261L40.8917 32.1154H41.9871L38.9959 35.9772L39.0099 35.4436L42.1556 39.488H41.0181L38.4482 36.1177L38.8414 36.1738L36.3136 39.488H35.1902ZM46.1464 39.5583C45.4536 39.5583 44.9199 39.371 44.5454 38.9965C44.171 38.622 43.9837 38.0931 43.9837 37.4096V30.4864H44.9808V37.3535C44.9808 37.7841 45.0884 38.1165 45.3038 38.3505C45.5285 38.5846 45.8468 38.7016 46.2587 38.7016C46.6987 38.7016 47.0638 38.5752 47.3541 38.3225L47.7052 39.0387C47.5085 39.2165 47.2698 39.3476 46.9889 39.4319C46.7174 39.5161 46.4366 39.5583 46.1464 39.5583ZM42.6637 32.9439V32.1154H47.2277V32.9439H42.6637Z" fill="white"/>
</svg>
