<svg width="67" height="67" viewBox="0 0 67 67" fill="none" xmlns="http://www.w3.org/2000/svg">
<rect x="4.81104" y="18.9187" width="58.0931" height="29.0466" rx="5.28119" fill="white"/>
<path d="M28.4666 40.3734C28.043 40.3734 27.6804 40.2226 27.3787 39.9209C27.0771 39.6193 26.9263 39.2566 26.9263 38.833V28.0506C26.9263 27.627 27.0771 27.2644 27.3787 26.9627C27.6804 26.6611 28.043 26.5103 28.4666 26.5103H39.2491C39.6726 26.5103 40.0353 26.6611 40.3369 26.9627C40.6386 27.2644 40.7894 27.627 40.7894 28.0506V29.976H39.2491V28.0506H28.4666V38.833H39.2491V36.9076H40.7894V38.833C40.7894 39.2566 40.6386 39.6193 40.3369 39.9209C40.0353 40.2226 39.6726 40.3734 39.2491 40.3734H28.4666ZM34.628 37.2927C34.2044 37.2927 33.8418 37.1419 33.5401 36.8402C33.2385 36.5386 33.0877 36.1759 33.0877 35.7523V31.1313C33.0877 30.7077 33.2385 30.3451 33.5401 30.0434C33.8418 29.7418 34.2044 29.5909 34.628 29.5909H40.0192C40.4428 29.5909 40.8054 29.7418 41.1071 30.0434C41.4087 30.3451 41.5596 30.7077 41.5596 31.1313V35.7523C41.5596 36.1759 41.4087 36.5386 41.1071 36.8402C40.8054 37.1419 40.4428 37.2927 40.0192 37.2927H34.628ZM40.0192 35.7523V31.1313H34.628V35.7523H40.0192ZM36.9385 34.5971C37.2594 34.5971 37.5322 34.4848 37.7568 34.2601C37.9815 34.0355 38.0938 33.7627 38.0938 33.4418C38.0938 33.1209 37.9815 32.8481 37.7568 32.6235C37.5322 32.3989 37.2594 32.2866 36.9385 32.2866C36.6176 32.2866 36.3449 32.3989 36.1202 32.6235C35.8956 32.8481 35.7833 33.1209 35.7833 33.4418C35.7833 33.7627 35.8956 34.0355 36.1202 34.2601C36.3449 34.4848 36.6176 34.5971 36.9385 34.5971Z" fill="#57575B"/>
</svg>
