<svg width="66" height="66" viewBox="0 0 66 66" fill="none" xmlns="http://www.w3.org/2000/svg">
<path d="M5.80816 36.0515C5.56886 36.0515 5.34272 36.1472 5.17776 36.3122L2.47204 39.0179C2.08709 39.4029 2.35974 40.0604 2.90393 40.0604H16.6009C16.8401 40.0604 17.0663 39.9647 17.2312 39.7997L19.937 37.094C20.3219 36.709 20.0493 36.0515 19.5051 36.0515H5.80816Z" fill="#3F3E3E" stroke="white" stroke-width="0.6601"/>
<path d="M5.18257 26.2054L5.18253 26.2054L5.17776 26.2101L2.47204 28.9159C2.08709 29.3008 2.35974 29.9583 2.90393 29.9583H16.6008C16.8401 29.9583 17.0663 29.8626 17.2312 29.6977L19.937 26.9919C20.3219 26.607 20.0493 25.9495 19.5051 25.9495H5.80816C5.57075 25.9495 5.34785 26.0468 5.18257 26.2054Z" fill="#3F3E3E" stroke="white" stroke-width="0.6601"/>
<path d="M17.2312 31.2287C17.0663 31.0637 16.8401 30.968 16.6009 30.968H2.90393C2.35974 30.968 2.08709 31.6255 2.47204 32.0105L5.17776 34.7162C5.34272 34.8812 5.56886 34.9769 5.80816 34.9769H19.5051C20.0493 34.9769 20.3219 34.3194 19.937 33.9344L17.2312 31.2287Z" fill="#3F3E3E" stroke="white" stroke-width="0.6601"/>
<path d="M27.7417 37.0049V28.6876H31.33C32.2568 28.6876 32.9737 28.8738 33.4806 29.2461C33.9955 29.6184 34.253 30.1451 34.253 30.8263C34.253 31.2779 34.146 31.6581 33.9322 31.967C33.7262 32.2759 33.441 32.5096 33.0767 32.668C32.7202 32.8264 32.3281 32.9057 31.9004 32.9057L32.1024 32.6205C32.6331 32.6205 33.0885 32.7037 33.4688 32.87C33.8569 33.0284 34.1579 33.27 34.3718 33.5948C34.5856 33.9117 34.6926 34.3077 34.6926 34.783C34.6926 35.488 34.4312 36.0345 33.9084 36.4227C33.3935 36.8108 32.6133 37.0049 31.5677 37.0049H27.7417ZM28.621 36.2801H31.5558C32.2845 36.2801 32.843 36.1573 33.2311 35.9118C33.6193 35.6583 33.8133 35.2583 33.8133 34.7117C33.8133 34.1731 33.6193 33.781 33.2311 33.5354C32.843 33.2819 32.2845 33.1552 31.5558 33.1552H28.5259V32.4304H31.2706C31.936 32.4304 32.4509 32.3037 32.8153 32.0502C33.1876 31.7967 33.3737 31.4204 33.3737 30.9214C33.3737 30.4144 33.1876 30.0382 32.8153 29.7926C32.4509 29.5392 31.936 29.4124 31.2706 29.4124H28.621V36.2801ZM36.5213 37.0049V28.1886H37.3649V37.0049H36.5213ZM39.7122 37.0049V30.7669H40.5558V37.0049H39.7122ZM40.1399 29.3886C39.9657 29.3886 39.8191 29.3292 39.7003 29.2104C39.5815 29.0916 39.5221 28.949 39.5221 28.7827C39.5221 28.6163 39.5815 28.4777 39.7003 28.3668C39.8191 28.248 39.9657 28.1886 40.1399 28.1886C40.3142 28.1886 40.4607 28.244 40.5796 28.3549C40.6984 28.4658 40.7578 28.6044 40.7578 28.7708C40.7578 28.9451 40.6984 29.0916 40.5796 29.2104C40.4687 29.3292 40.3221 29.3886 40.1399 29.3886ZM46.0874 30.7075C46.5944 30.7075 47.038 30.8065 47.4182 31.0046C47.8063 31.1947 48.1073 31.4878 48.3212 31.8838C48.543 32.2799 48.6539 32.7789 48.6539 33.3809V37.0049H47.8103V33.4641C47.8103 32.8066 47.6439 32.3116 47.3112 31.9789C46.9865 31.6383 46.527 31.468 45.933 31.468C45.4894 31.468 45.1012 31.5591 44.7685 31.7412C44.4438 31.9155 44.1903 32.173 44.0081 32.5136C43.8338 32.8463 43.7467 33.2502 43.7467 33.7255V37.0049H42.9031V30.7669H43.7111V32.4779L43.5804 32.1571C43.7784 31.7056 44.0952 31.3531 44.5309 31.0996C44.9666 30.8382 45.4854 30.7075 46.0874 30.7075ZM51.598 35.389L51.6217 34.3077L55.5071 30.7669H56.5408L53.7961 33.3928L53.3208 33.7968L51.598 35.389ZM50.9326 37.0049V28.1886H51.7762V37.0049H50.9326ZM55.7685 37.0049L53.1664 33.7612L53.7129 33.1077L56.8022 37.0049H55.7685ZM59.5583 37.0643C59.0434 37.0643 58.5563 36.993 58.0969 36.8504C57.6374 36.6999 57.277 36.5138 57.0156 36.292L57.3958 35.6266C57.6493 35.8167 57.9741 35.983 58.3701 36.1256C58.7662 36.2603 59.1821 36.3276 59.6177 36.3276C60.2118 36.3276 60.6396 36.2365 60.901 36.0543C61.1624 35.8642 61.2931 35.6147 61.2931 35.3058C61.2931 35.0761 61.2178 34.8978 61.0673 34.7711C60.9247 34.6364 60.7346 34.5374 60.497 34.4741C60.2593 34.4028 59.994 34.3434 59.7009 34.2958C59.4078 34.2483 59.1147 34.1929 58.8216 34.1295C58.5365 34.0661 58.2751 33.975 58.0374 33.8562C57.7998 33.7295 57.6057 33.5592 57.4552 33.3453C57.3127 33.1314 57.2414 32.8463 57.2414 32.4898C57.2414 32.1492 57.3364 31.8442 57.5265 31.5749C57.7166 31.3056 57.9939 31.0957 58.3583 30.9452C58.7305 30.7867 59.1821 30.7075 59.7128 30.7075C60.1168 30.7075 60.5207 30.763 60.9247 30.8739C61.3287 30.9768 61.6614 31.1155 61.9228 31.2897L61.5545 31.967C61.2772 31.7769 60.9802 31.6422 60.6633 31.563C60.3465 31.4759 60.0296 31.4323 59.7128 31.4323C59.1504 31.4323 58.7345 31.5313 58.4652 31.7294C58.2038 31.9195 58.0731 32.165 58.0731 32.466C58.0731 32.7037 58.1444 32.8898 58.287 33.0245C58.4375 33.1591 58.6315 33.2661 58.8692 33.3453C59.1147 33.4166 59.3801 33.476 59.6653 33.5235C59.9583 33.571 60.2475 33.6305 60.5326 33.7017C60.8257 33.7651 61.0911 33.8562 61.3287 33.975C61.5743 34.0859 61.7683 34.2483 61.9109 34.4622C62.0614 34.6681 62.1367 34.9414 62.1367 35.282C62.1367 35.6464 62.0337 35.9632 61.8277 36.2326C61.6297 36.494 61.3366 36.6999 60.9485 36.8504C60.5683 36.993 60.1049 37.0643 59.5583 37.0643Z" fill="white"/>
</svg>
