<svg width="67" height="67" viewBox="0 0 67 67" fill="none" xmlns="http://www.w3.org/2000/svg">
<path d="M19.9959 20.3867C20.8501 20.3867 21.5425 21.0791 21.5425 21.9333V25.71C21.5425 26.5642 20.8501 27.2566 19.9959 27.2566H17.8498C17.8498 27.8001 17.8818 28.3437 17.9457 28.8872C18.0416 29.4627 18.2015 29.9742 18.4253 30.4218C18.6491 30.8694 18.9368 31.2211 19.2885 31.4769C19.6402 31.7646 20.0878 31.9085 20.6313 31.9085V34.3064C19.7361 34.3064 18.9528 34.1146 18.2814 33.7309C17.61 33.3472 17.0505 32.8357 16.6029 32.1963C16.1872 31.5568 15.8675 30.8055 15.6437 29.9422C15.4519 29.111 15.356 28.2158 15.356 27.2566V21.9333C15.356 21.0791 16.0484 20.3867 16.9026 20.3867H19.9959Z" stroke="white" stroke-width="1.08264"/>
<path d="M10.7161 20.3867C11.5703 20.3867 12.2627 21.0791 12.2627 21.9333V25.71C12.2627 26.5642 11.5703 27.2566 10.7161 27.2566H8.56997C8.56997 27.8001 8.60194 28.3437 8.66588 28.8872C8.7618 29.4627 8.92166 29.9742 9.14546 30.4218C9.36927 30.8694 9.65701 31.2211 10.0087 31.4769C10.3604 31.7646 10.808 31.9085 11.3515 31.9085V34.3064C10.4563 34.3064 9.673 34.1146 9.00159 33.7309C8.33018 33.3472 7.77068 32.8357 7.32307 32.1963C6.90744 31.5568 6.58772 30.8055 6.36392 29.9422C6.17209 29.111 6.07617 28.2158 6.07617 27.2566V21.9333C6.07617 21.0791 6.76862 20.3867 7.62281 20.3867H10.7161Z" stroke="white" stroke-width="1.08264"/>
<line x1="6.07617" y1="39.3159" x2="60.2084" y2="39.3159" stroke="#838389" stroke-width="2.35357"/>
<line x1="6.07617" y1="45.5024" x2="31.9655" y2="45.5024" stroke="#838389" stroke-width="2.35357"/>
</svg>
