<svg width="67" height="67" viewBox="0 0 67 67" fill="none" xmlns="http://www.w3.org/2000/svg">
<rect x="12.583" y="12.614" width="40.9292" height="40.9292" rx="1.98045" stroke="white" stroke-width="1.3203"/>
<path d="M36.3193 24.6911C36.4265 24.3427 36.231 23.9733 35.8825 23.866C35.534 23.7588 35.1646 23.9544 35.0574 24.3029L29.7762 41.4667C29.669 41.8152 29.8646 42.1846 30.213 42.2918C30.5615 42.399 30.9309 42.2035 31.0381 41.855L36.3193 24.6911Z" fill="white"/>
<path d="M28.8935 27.9911C29.1513 28.2489 29.1513 28.6669 28.8935 28.9247L24.7392 33.0789L28.8935 37.2332C29.1513 37.491 29.1513 37.909 28.8935 38.1668C28.6357 38.4246 28.2177 38.4246 27.9599 38.1668L23.3389 33.5457C23.0811 33.2879 23.0811 32.8699 23.3389 32.6121L27.9599 27.9911C28.2177 27.7333 28.6357 27.7333 28.8935 27.9911Z" fill="white"/>
<path d="M37.202 27.9911C36.9442 28.2489 36.9442 28.6669 37.202 28.9247L41.3562 33.0789L37.202 37.2332C36.9442 37.491 36.9442 37.909 37.202 38.1668C37.4598 38.4246 37.8778 38.4246 38.1356 38.1668L42.7566 33.5457C43.0144 33.2879 43.0144 32.8699 42.7566 32.6121L38.1356 27.9911C37.8778 27.7333 37.4598 27.7333 37.202 27.9911Z" fill="white"/>
</svg>
