<svg width="67" height="67" viewBox="0 0 67 67" fill="none" xmlns="http://www.w3.org/2000/svg">
<rect x="21.4097" y="20.6272" width="25.0857" height="25.0857" rx="3.30075" fill="#3F3E3E"/>
<rect x="21.4097" y="20.6272" width="25.0857" height="25.0857" rx="3.30075" stroke="white" stroke-width="1.3203"/>
<path d="M38.8536 28.1689C39.337 27.6856 40.1207 27.6856 40.6041 28.1689C41.0816 28.6464 41.0874 29.4169 40.6217 29.9015L34.0331 38.1373C34.0235 38.1492 34.0134 38.1605 34.0026 38.1713C33.5192 38.6547 32.7355 38.6547 32.2521 38.1713L27.8845 33.8037C27.4011 33.3203 27.4011 32.5366 27.8845 32.0532C28.3679 31.5698 29.1516 31.5698 29.635 32.0532L33.0901 35.5083L38.8208 28.206C38.831 28.193 38.842 28.1806 38.8536 28.1689Z" fill="white"/>
</svg>
