<svg width="67" height="67" viewBox="0 0 67 67" fill="none" xmlns="http://www.w3.org/2000/svg">
<path d="M15.9588 39.1243V29.294H16.998V38.2255H22.503V39.1243H15.9588ZM28.638 39.1243V37.4953L28.5958 37.2284V34.5041C28.5958 33.8768 28.4179 33.3947 28.0622 33.0576C27.7158 32.7206 27.1962 32.5521 26.5034 32.5521C26.0259 32.5521 25.5719 32.6316 25.1412 32.7908C24.7105 32.95 24.3454 33.1606 24.0458 33.4227L23.5965 32.6785C23.9709 32.3601 24.4203 32.1167 24.9446 31.9482C25.4689 31.7703 26.0212 31.6814 26.6017 31.6814C27.5566 31.6814 28.2916 31.9201 28.8065 32.3976C29.3307 32.8657 29.5929 33.5819 29.5929 34.5462V39.1243H28.638ZM26.0961 39.1945C25.5438 39.1945 25.0616 39.1055 24.6497 38.9277C24.2471 38.7404 23.9382 38.4876 23.7228 38.1693C23.5075 37.8417 23.3998 37.4672 23.3998 37.0459C23.3998 36.662 23.4888 36.3156 23.6667 36.0067C23.8539 35.6884 24.1535 35.4356 24.5654 35.2484C24.9867 35.0517 25.5485 34.9534 26.2506 34.9534H28.7924V35.6977H26.2787C25.5672 35.6977 25.071 35.8241 24.7901 36.0769C24.5186 36.3297 24.3829 36.6433 24.3829 37.0178C24.3829 37.4391 24.5467 37.7761 24.8744 38.0289C25.2021 38.2817 25.6608 38.4081 26.2506 38.4081C26.8123 38.4081 27.2945 38.2817 27.6971 38.0289C28.109 37.7668 28.4086 37.3923 28.5958 36.9054L28.8205 37.5936C28.6333 38.0804 28.3056 38.4689 27.8375 38.7591C27.3787 39.0494 26.7983 39.1945 26.0961 39.1945ZM36.1067 39.1945C35.4607 39.1945 34.8803 39.0494 34.3654 38.7591C33.8505 38.4596 33.4432 38.0289 33.1436 37.4672C32.844 36.9054 32.6942 36.2267 32.6942 35.4309C32.6942 34.6258 32.844 33.947 33.1436 33.3947C33.4526 32.8329 33.8645 32.407 34.3794 32.1167C34.8943 31.8265 35.4701 31.6814 36.1067 31.6814C36.8089 31.6814 37.4361 31.8405 37.9885 32.1589C38.5502 32.4678 38.9903 32.9031 39.3086 33.4649C39.6269 34.0266 39.786 34.6819 39.786 35.4309C39.786 36.1705 39.6269 36.8259 39.3086 37.397C38.9903 37.9587 38.5502 38.3987 37.9885 38.717C37.4361 39.0353 36.8089 39.1945 36.1067 39.1945ZM32.301 39.1243V28.7042H33.2981V33.9283L33.1577 35.4169L33.256 36.9054V39.1243H32.301ZM36.0365 38.3098C36.5608 38.3098 37.0289 38.1927 37.4408 37.9587C37.8528 37.7153 38.1804 37.3782 38.4238 36.9476C38.6673 36.5076 38.789 36.002 38.789 35.4309C38.789 34.8505 38.6673 34.3449 38.4238 33.9143C38.1804 33.4836 37.8528 33.1512 37.4408 32.9172C37.0289 32.6738 36.5608 32.5521 36.0365 32.5521C35.5122 32.5521 35.0394 32.6738 34.6181 32.9172C34.2062 33.1512 33.8785 33.4836 33.6351 33.9143C33.4011 34.3449 33.284 34.8505 33.284 35.4309C33.284 36.002 33.4011 36.5076 33.6351 36.9476C33.8785 37.3782 34.2062 37.7153 34.6181 37.9587C35.0394 38.1927 35.5122 38.3098 36.0365 38.3098ZM44.9502 39.1945C44.1825 39.1945 43.5084 39.0353 42.928 38.717C42.3475 38.3893 41.8935 37.9446 41.5658 37.3829C41.2381 36.8118 41.0743 36.1612 41.0743 35.4309C41.0743 34.7007 41.2288 34.0547 41.5377 33.493C41.856 32.9312 42.2867 32.4912 42.8297 32.1729C43.382 31.8452 43.9999 31.6814 44.6834 31.6814C45.3762 31.6814 45.9894 31.8405 46.523 32.1589C47.066 32.4678 47.492 32.9078 47.801 33.4789C48.1099 34.0406 48.2644 34.6913 48.2644 35.4309C48.2644 35.4777 48.2597 35.5292 48.2503 35.5854C48.2503 35.6322 48.2503 35.6837 48.2503 35.7399H41.8326V34.9956H47.7167L47.3235 35.2905C47.3235 34.7568 47.2065 34.2841 46.9724 33.8721C46.7477 33.4508 46.4388 33.1232 46.0456 32.8891C45.6524 32.655 45.1983 32.538 44.6834 32.538C44.1778 32.538 43.7238 32.655 43.3212 32.8891C42.9186 33.1232 42.605 33.4508 42.3803 33.8721C42.1556 34.2934 42.0433 34.7756 42.0433 35.3186V35.473C42.0433 36.0348 42.165 36.531 42.4084 36.9616C42.6612 37.3829 43.0076 37.7153 43.4476 37.9587C43.897 38.1927 44.4072 38.3098 44.9783 38.3098C45.4277 38.3098 45.8443 38.2302 46.2281 38.071C46.6213 37.9119 46.9584 37.6685 47.2392 37.3408L47.801 37.9868C47.4733 38.38 47.0613 38.6796 46.5652 38.8855C46.0783 39.0915 45.54 39.1945 44.9502 39.1945ZM50.2938 39.1243V28.7042H51.2909V39.1243H50.2938Z" fill="white"/>
</svg>
