<svg width="67" height="67" viewBox="0 0 67 67" fill="none" xmlns="http://www.w3.org/2000/svg">
<rect x="1.51074" y="21.0278" width="64.6946" height="24.1019" rx="5.07409" fill="white"/>
<path d="M55.9129 34.9417L51.502 31.6551L52.5312 30.8882L55.9129 33.4079L59.2947 30.8882L60.3239 31.6551L55.9129 34.9417Z" fill="#57575B"/>
<path d="M10.0539 36.3704V30.1546H12.6734C13.3365 30.1546 13.9196 30.2848 14.4227 30.5453C14.9318 30.8058 15.3255 31.1698 15.6037 31.6375C15.8879 32.1052 16.03 32.6468 16.03 33.2625C16.03 33.8781 15.8879 34.4198 15.6037 34.8875C15.3255 35.3551 14.9318 35.7192 14.4227 35.9797C13.9196 36.2401 13.3365 36.3704 12.6734 36.3704H10.0539ZM10.9419 35.5978H12.6202C13.1352 35.5978 13.5792 35.5002 13.9521 35.3048C14.331 35.1095 14.624 34.8371 14.8312 34.4879C15.0384 34.1327 15.142 33.7242 15.142 33.2625C15.142 32.7948 15.0384 32.3864 14.8312 32.0371C14.624 31.6878 14.331 31.4155 13.9521 31.2202C13.5792 31.0248 13.1352 30.9271 12.6202 30.9271H10.9419V35.5978ZM17.2658 36.3704V31.6641H18.0827V32.9428L18.0028 32.6231C18.133 32.2976 18.352 32.0489 18.6599 31.8773C18.9677 31.7056 19.3465 31.6197 19.7965 31.6197V32.4456C19.7609 32.4396 19.7254 32.4367 19.6899 32.4367C19.6603 32.4367 19.6307 32.4367 19.6011 32.4367C19.1453 32.4367 18.7842 32.5728 18.5178 32.8451C18.2514 33.1174 18.1182 33.5111 18.1182 34.0261V36.3704H17.2658ZM22.8194 36.4236C22.3458 36.4236 21.9255 36.32 21.5585 36.1129C21.1915 35.9057 20.9014 35.6215 20.6883 35.2604C20.4752 34.8934 20.3686 34.479 20.3686 34.0173C20.3686 33.5496 20.4752 33.1352 20.6883 32.7741C20.9014 32.413 21.1915 32.1318 21.5585 31.9305C21.9255 31.7233 22.3458 31.6197 22.8194 31.6197C23.2871 31.6197 23.7044 31.7233 24.0714 31.9305C24.4444 32.1318 24.7345 32.413 24.9417 32.7741C25.1548 33.1293 25.2613 33.5437 25.2613 34.0173C25.2613 34.4849 25.1548 34.8993 24.9417 35.2604C24.7345 35.6215 24.4444 35.9057 24.0714 36.1129C23.7044 36.32 23.2871 36.4236 22.8194 36.4236ZM22.8194 35.6777C23.1213 35.6777 23.3907 35.6097 23.6275 35.4735C23.8702 35.3374 24.0596 35.145 24.1958 34.8963C24.3319 34.6418 24.4 34.3488 24.4 34.0173C24.4 33.6798 24.3319 33.3898 24.1958 33.147C24.0596 32.8984 23.8702 32.706 23.6275 32.5699C23.3907 32.4337 23.1213 32.3656 22.8194 32.3656C22.5175 32.3656 22.2482 32.4337 22.0114 32.5699C21.7746 32.706 21.5851 32.8984 21.4431 33.147C21.301 33.3898 21.23 33.6798 21.23 34.0173C21.23 34.3488 21.301 34.6418 21.4431 34.8963C21.5851 35.145 21.7746 35.3374 22.0114 35.4735C22.2482 35.6097 22.5175 35.6777 22.8194 35.6777ZM28.9354 36.4236C28.5447 36.4236 28.1866 36.3348 27.861 36.1572C27.5413 35.9737 27.2838 35.7044 27.0885 35.3492C26.899 34.994 26.8043 34.55 26.8043 34.0173C26.8043 33.4845 26.8961 33.0405 27.0796 32.6853C27.269 32.3301 27.5236 32.0637 27.8432 31.8861C28.1688 31.7085 28.5329 31.6197 28.9354 31.6197C29.3972 31.6197 29.8056 31.7204 30.1608 31.9217C30.516 32.1229 30.7972 32.4041 31.0044 32.7652C31.2116 33.1204 31.3152 33.5378 31.3152 34.0173C31.3152 34.4968 31.2116 34.9171 31.0044 35.2782C30.7972 35.6393 30.516 35.9205 30.1608 36.1217C29.8056 36.323 29.3972 36.4236 28.9354 36.4236ZM26.4402 38.093V31.6641H27.2572V32.9339L27.2039 34.0261L27.2927 35.1183V38.093H26.4402ZM28.8644 35.6777C29.1663 35.6777 29.4356 35.6097 29.6724 35.4735C29.9151 35.3374 30.1046 35.145 30.2407 34.8963C30.3828 34.6418 30.4538 34.3488 30.4538 34.0173C30.4538 33.6798 30.3828 33.3898 30.2407 33.147C30.1046 32.8984 29.9151 32.706 29.6724 32.5699C29.4356 32.4337 29.1663 32.3656 28.8644 32.3656C28.5684 32.3656 28.299 32.4337 28.0563 32.5699C27.8195 32.706 27.6301 32.8984 27.488 33.147C27.3519 33.3898 27.2838 33.6798 27.2838 34.0173C27.2838 34.3488 27.3519 34.6418 27.488 34.8963C27.6301 35.145 27.8195 35.3374 28.0563 35.4735C28.299 35.6097 28.5684 35.6777 28.8644 35.6777Z" fill="#57575B"/>
</svg>
