<svg width="67" height="67" viewBox="0 0 67 67" fill="none" xmlns="http://www.w3.org/2000/svg">
<path d="M29.0897 28.5817C29.0897 30.2223 27.7597 31.5524 26.119 31.5524C24.4784 31.5524 23.1484 30.2223 23.1484 28.5817C23.1484 26.941 24.4784 25.611 26.119 25.611C27.7597 25.611 29.0897 26.941 29.0897 28.5817Z" fill="white"/>
<path d="M21.1679 19.6697C18.9804 19.6697 17.207 21.443 17.207 23.6306V43.435C17.207 45.6226 18.9804 47.3959 21.1679 47.3959H44.9333C47.1208 47.3959 48.8942 45.6226 48.8942 43.435V23.6306C48.8942 21.443 47.1208 19.6697 44.9333 19.6697H21.1679ZM44.9333 21.6501C46.0271 21.6501 46.9137 22.5368 46.9137 23.6306V36.5035L39.4348 32.6472C39.0536 32.4565 38.5931 32.5313 38.2918 32.8326L30.944 40.1804L25.6781 36.6698C25.2854 36.408 24.7624 36.4598 24.4286 36.7935L19.1875 41.4546V23.6306C19.1875 22.5368 20.0742 21.6501 21.1679 21.6501H44.9333Z" fill="white"/>
</svg>
