<svg width="67" height="67" viewBox="0 0 67 67" fill="none" xmlns="http://www.w3.org/2000/svg">
<path d="M49.4759 18.7544L49.4755 18.7543C48.7991 18.5725 47.6108 18.4212 46.127 18.3013C44.6589 18.1828 42.9493 18.0982 41.2583 18.0381C37.8775 17.9179 34.5938 17.896 33.511 17.892C33.511 17.892 33.511 17.892 33.5109 17.892C33.5109 17.892 33.5108 17.892 33.5107 17.892L33.3245 17.8915L33.3241 17.8915L33.2776 17.8914H33.2768H33.0029H33.0022L32.9556 17.8915L32.9552 17.8915L32.7691 17.892C32.7689 17.892 32.7688 17.892 32.7687 17.892C31.7101 17.8959 28.5475 17.917 25.2471 18.0302C25.247 18.0302 25.2469 18.0302 25.2468 18.0303L24.7963 18.0463L24.7954 18.0463L24.5717 18.0547L24.5708 18.0547L24.1209 18.0725L24.119 18.0726L23.6702 18.0916C23.6701 18.0916 23.6699 18.0916 23.6697 18.0916C20.7178 18.2211 18.0049 18.4316 16.8046 18.7543L16.8042 18.7544C15.2154 19.1806 13.9613 20.4384 13.5359 22.0351L13.5358 22.0355C13.2828 22.9833 13.1003 24.2711 12.9713 25.6305C12.9712 25.6308 12.9712 25.6311 12.9712 25.6314L12.9463 25.9021C12.9462 25.9024 12.9462 25.9027 12.9462 25.903C12.9261 26.1284 12.9075 26.3545 12.8902 26.58C12.8902 26.5803 12.8902 26.5805 12.8901 26.5808L12.87 26.8516L12.8699 26.8531L12.8606 26.9852L12.8605 26.9866L12.8423 27.2555C12.8423 27.2557 12.8423 27.256 12.8422 27.2562C12.7016 29.4024 12.6793 31.3508 12.6758 31.9114C12.6758 31.9115 12.6758 31.9116 12.6758 31.9117L12.6754 31.9998L12.6754 32.0005L12.6753 32.0193V32.0205V32.121V32.1222L12.6754 32.141L12.6754 32.1418L12.6758 32.2298C12.6797 32.8492 12.7065 35.1599 12.8901 37.5601C12.8901 37.5604 12.8901 37.5606 12.8901 37.5609L12.9114 37.8307L12.9117 37.834L12.9343 38.1039C12.9344 38.1042 12.9344 38.1045 12.9344 38.1048C13.0645 39.6079 13.257 41.0618 13.5358 42.106L13.5359 42.1064C13.9613 43.7032 15.2154 44.9613 16.8041 45.3871L16.8046 45.3872C18.0049 45.71 20.7176 45.9206 23.6693 46.0502L49.4759 18.7544ZM49.4759 18.7544C51.0647 19.1806 52.3188 20.4384 52.7441 22.0351L52.7442 22.0355M49.4759 18.7544L52.7442 22.0355M32.9552 46.2504C32.9551 46.2504 32.9549 46.2504 32.9548 46.2504C32.1405 46.2484 28.7722 46.2326 25.2468 46.1116L24.7963 46.0955L24.7954 46.0955L24.5717 46.0871L24.5708 46.0871L24.1209 46.0693L24.119 46.0692L23.6703 46.0502L32.9536 46.9106L32.9552 46.2504ZM32.9552 46.2504L33.1055 46.2507M32.9552 46.2504L33.1055 46.2507M33.1055 46.2507H33.106M33.1055 46.2507H33.106M33.106 46.2507L33.1179 46.2507L33.1227 46.2507L33.124 46.2507H33.1241H33.1245H33.1246H33.1246L33.1743 46.2507H33.1747L33.2005 46.2507H33.2008L33.3245 46.2504C33.3246 46.2504 33.3247 46.2504 33.3248 46.2504C34.1303 46.2484 37.4361 46.233 40.9207 46.1154C42.6637 46.0566 44.4458 45.9724 45.9795 45.8521C47.5299 45.7305 48.7755 45.5755 49.4754 45.3872L49.476 45.3871C51.0647 44.9613 52.3188 43.7032 52.7441 42.1064L52.7442 42.106C53.0229 41.0621 53.2153 39.6085 53.3453 38.1057L33.106 46.2507ZM53.6043 32.1674C53.6043 32.1676 53.6042 32.1678 53.6042 32.168C53.6018 32.6768 53.5801 35.0701 53.3898 37.5599C53.3897 37.5603 53.3897 37.5606 53.3897 37.5609L53.3684 37.8307L53.3681 37.834L53.3455 38.104L53.6043 32.1674ZM53.6043 32.1674L53.6045 32.102M53.6043 32.1674L53.6045 32.102M53.6045 32.102V32.1014M53.6045 32.102V32.1014M53.6045 32.1014L53.6045 32.0931L53.6045 32.0895V32.0884V32.0882V32.0881L53.6045 32.1014ZM52.7442 22.0355C52.9973 22.9835 53.1797 24.2716 53.3087 25.6312M52.7442 22.0355L53.3087 25.6312M53.3087 25.6312C53.3087 25.6313 53.3087 25.6313 53.3087 25.6314M53.3087 25.6312L53.3087 25.6314M53.3087 25.6314L53.3336 25.9021C53.3336 25.9022 53.3336 25.9023 53.3336 25.9024C53.3537 26.1281 53.3724 26.3544 53.3896 26.5801C53.3896 26.5803 53.3897 26.5806 53.3897 26.5808L53.4098 26.8516C53.4098 26.852 53.4098 26.8525 53.4099 26.8529C53.5817 29.2435 53.6019 31.4836 53.6042 31.9735C53.6042 31.9737 53.6043 31.9739 53.6043 31.9742L53.3087 25.6314ZM29.246 25.1395L28.2549 24.5652V25.7107V38.4309V39.5763L29.246 39.0021L40.2223 32.6423L41.208 32.0711L40.2223 31.4999L29.246 25.1395ZM53.6045 32.0395V32.0402L53.6045 32.0484L53.6045 32.052L53.6045 32.0531V32.0534V32.0534L53.6045 32.0395Z" fill="#3E3E3E" stroke="white" stroke-width="1.3203"/>
</svg>
