<svg width="67" height="67" viewBox="0 0 67 67" fill="none" xmlns="http://www.w3.org/2000/svg">
<rect x="12.583" y="12.9773" width="40.9292" height="40.9292" rx="1.98045" stroke="white" stroke-width="1.3203"/>
<path d="M28.7101 31.5177L26.8989 33.3289C25.3521 34.8757 25.3521 37.3836 26.8989 38.9304C28.4457 40.4772 30.9536 40.4772 32.5005 38.9304L34.9145 36.5163C36.4614 34.9695 36.4614 32.4616 34.9145 30.9148C34.5872 30.5874 34.2168 30.3294 33.8216 30.1406L33.0474 30.9148C32.9668 30.9953 32.8989 31.0836 32.8435 31.1773C33.26 31.2967 33.6529 31.5203 33.9809 31.8484C35.0122 32.8796 35.0122 34.5515 33.9809 35.5828L31.5669 37.9968C30.5357 39.028 28.8637 39.028 27.8325 37.9968C26.8013 36.9656 26.8013 35.2937 27.8325 34.2625L28.879 33.216C28.7309 32.6613 28.6745 32.0872 28.7101 31.5177Z" fill="white"/>
<path d="M31.1802 29.0476C29.6333 30.5944 29.6333 33.1023 31.1802 34.6492C31.5075 34.9765 31.8779 35.2346 32.2731 35.4234L33.2972 34.3994C32.8636 34.2836 32.4539 34.0557 32.1138 33.7156C31.0825 32.6844 31.0825 31.0124 32.1138 29.9812L34.5278 27.5671C35.5591 26.5359 37.231 26.5359 38.2622 27.5671C39.2934 28.5983 39.2934 30.2703 38.2622 31.3015L37.2157 32.348C37.3639 32.9027 37.4202 33.4768 37.3847 34.0462L39.1958 32.2351C40.7426 30.6883 40.7426 28.1804 39.1958 26.6335C37.649 25.0867 35.1411 25.0867 33.5942 26.6335L31.1802 29.0476Z" fill="white"/>
</svg>
